<svg xmlns="http://www.w3.org/2000/svg" version="1.1" xmlns:xlink="http://www.w3.org/1999/xlink" xmlns:svgjs="http://svgjs.com/svgjs" width="1440" height="1000" preserveAspectRatio="none" viewBox="0 0 1440 1000"><g mask="url(&quot;#SvgjsMask1093&quot;)" fill="none"><rect width="1440" height="1000" x="0" y="0" fill="rgba(240, 248, 255, 1)"></rect><path d="M1193 956L1453 1216" stroke-width="8" stroke="url(#SvgjsLinearGradient1094)" stroke-linecap="round" class="TopLeft"></path><path d="M1285 320L629 -336" stroke-width="8" stroke="url(#SvgjsLinearGradient1094)" stroke-linecap="round" class="TopLeft"></path><path d="M438 545L114 221" stroke-width="6" stroke="url(#SvgjsLinearGradient1094)" stroke-linecap="round" class="TopLeft"></path><path d="M1294 567L1681 954" stroke-width="8" stroke="url(#SvgjsLinearGradient1095)" stroke-linecap="round" class="BottomRight"></path><path d="M1434 93L1922 581" stroke-width="6" stroke="url(#SvgjsLinearGradient1094)" stroke-linecap="round" class="TopLeft"></path><path d="M907 6L1598 697" stroke-width="8" stroke="url(#SvgjsLinearGradient1094)" stroke-linecap="round" class="TopLeft"></path><path d="M4 97L452 545" stroke-width="6" stroke="url(#SvgjsLinearGradient1095)" stroke-linecap="round" class="BottomRight"></path><path d="M105 413L668 976" stroke-width="10" stroke="url(#SvgjsLinearGradient1095)" stroke-linecap="round" class="BottomRight"></path><path d="M1275 695L830 250" stroke-width="10" stroke="url(#SvgjsLinearGradient1095)" stroke-linecap="round" class="BottomRight"></path><path d="M693 853L1395 1555" stroke-width="6" stroke="url(#SvgjsLinearGradient1094)" stroke-linecap="round" class="TopLeft"></path><path d="M71 703L-221 411" stroke-width="8" stroke="url(#SvgjsLinearGradient1095)" stroke-linecap="round" class="BottomRight"></path><path d="M1270 934L1923 1587" stroke-width="6" stroke="url(#SvgjsLinearGradient1094)" stroke-linecap="round" class="TopLeft"></path><path d="M1237 965L640 368" stroke-width="6" stroke="url(#SvgjsLinearGradient1094)" stroke-linecap="round" class="TopLeft"></path><path d="M170 140L606 576" stroke-width="10" stroke="url(#SvgjsLinearGradient1095)" stroke-linecap="round" class="BottomRight"></path><path d="M1211 183L675 -353" stroke-width="6" stroke="url(#SvgjsLinearGradient1095)" stroke-linecap="round" class="BottomRight"></path><path d="M969 699L644 374" stroke-width="6" stroke="url(#SvgjsLinearGradient1094)" stroke-linecap="round" class="TopLeft"></path><path d="M252 549L549 846" stroke-width="8" stroke="url(#SvgjsLinearGradient1094)" stroke-linecap="round" class="TopLeft"></path><path d="M356 194L622 460" stroke-width="8" stroke="url(#SvgjsLinearGradient1095)" stroke-linecap="round" class="BottomRight"></path><path d="M558 622L108 172" stroke-width="6" stroke="url(#SvgjsLinearGradient1095)" stroke-linecap="round" class="BottomRight"></path><path d="M247 828L-369 212" stroke-width="6" stroke="url(#SvgjsLinearGradient1094)" stroke-linecap="round" class="TopLeft"></path><path d="M1323 555L1701 933" stroke-width="8" stroke="url(#SvgjsLinearGradient1094)" stroke-linecap="round" class="TopLeft"></path><path d="M980 844L679 543" stroke-width="6" stroke="url(#SvgjsLinearGradient1094)" stroke-linecap="round" class="TopLeft"></path><path d="M279 897L-166 452" stroke-width="6" stroke="url(#SvgjsLinearGradient1094)" stroke-linecap="round" class="TopLeft"></path><path d="M364 36L-364 -692" stroke-width="8" stroke="url(#SvgjsLinearGradient1094)" stroke-linecap="round" class="TopLeft"></path><path d="M402 557L711 866" stroke-width="8" stroke="url(#SvgjsLinearGradient1095)" stroke-linecap="round" class="BottomRight"></path><path d="M993 333L1288 628" stroke-width="10" stroke="url(#SvgjsLinearGradient1095)" stroke-linecap="round" class="BottomRight"></path><path d="M997 648L395 46" stroke-width="6" stroke="url(#SvgjsLinearGradient1094)" stroke-linecap="round" class="TopLeft"></path><path d="M870 536L1548 1214" stroke-width="8" stroke="url(#SvgjsLinearGradient1095)" stroke-linecap="round" class="BottomRight"></path><path d="M946 609L1222 885" stroke-width="10" stroke="url(#SvgjsLinearGradient1095)" stroke-linecap="round" class="BottomRight"></path><path d="M641 555L173 87" stroke-width="6" stroke="url(#SvgjsLinearGradient1095)" stroke-linecap="round" class="BottomRight"></path><path d="M1234 861L602 229" stroke-width="10" stroke="url(#SvgjsLinearGradient1094)" stroke-linecap="round" class="TopLeft"></path><path d="M1216 108L1554 446" stroke-width="8" stroke="url(#SvgjsLinearGradient1094)" stroke-linecap="round" class="TopLeft"></path><path d="M940 324L540 -76" stroke-width="8" stroke="url(#SvgjsLinearGradient1095)" stroke-linecap="round" class="BottomRight"></path><path d="M13 988L-711 264" stroke-width="6" stroke="url(#SvgjsLinearGradient1094)" stroke-linecap="round" class="TopLeft"></path><path d="M1013 709L301 -3" stroke-width="10" stroke="url(#SvgjsLinearGradient1094)" stroke-linecap="round" class="TopLeft"></path><path d="M113 594L-490 -9" stroke-width="6" stroke="url(#SvgjsLinearGradient1094)" stroke-linecap="round" class="TopLeft"></path><path d="M1425 946L718 239" stroke-width="6" stroke="url(#SvgjsLinearGradient1094)" stroke-linecap="round" class="TopLeft"></path><path d="M898 154L1422 678" stroke-width="10" stroke="url(#SvgjsLinearGradient1094)" stroke-linecap="round" class="TopLeft"></path><path d="M909 175L1644 910" stroke-width="6" stroke="url(#SvgjsLinearGradient1095)" stroke-linecap="round" class="BottomRight"></path><path d="M926 931L1189 1194" stroke-width="8" stroke="url(#SvgjsLinearGradient1094)" stroke-linecap="round" class="TopLeft"></path><path d="M626 330L1094 798" stroke-width="6" stroke="url(#SvgjsLinearGradient1094)" stroke-linecap="round" class="TopLeft"></path><path d="M194 126L-539 -607" stroke-width="6" stroke="url(#SvgjsLinearGradient1095)" stroke-linecap="round" class="BottomRight"></path><path d="M1033 193L303 -537" stroke-width="6" stroke="url(#SvgjsLinearGradient1095)" stroke-linecap="round" class="BottomRight"></path><path d="M21 249L517 745" stroke-width="10" stroke="url(#SvgjsLinearGradient1094)" stroke-linecap="round" class="TopLeft"></path></g><defs><mask id="SvgjsMask1093"><rect width="1440" height="1000" fill="#ffffff"></rect></mask><linearGradient x1="100%" y1="100%" x2="0%" y2="0%" id="SvgjsLinearGradient1094"><stop stop-color="rgba(255, 255, 255, 0)" offset="0"></stop><stop stop-color="rgba(255, 255, 255, 1)" offset="1"></stop></linearGradient><linearGradient x1="0%" y1="0%" x2="100%" y2="100%" id="SvgjsLinearGradient1095"><stop stop-color="rgba(255, 255, 255, 0)" offset="0"></stop><stop stop-color="rgba(255, 255, 255, 1)" offset="1"></stop></linearGradient></defs></svg>